<?xml version="1.0" standalone="no"?>
<!DOCTYPE svg PUBLIC "-//W3C//DTD SVG 20010904//EN"
 "http://www.w3.org/TR/2001/REC-SVG-20010904/DTD/svg10.dtd">
<svg version="1.0" xmlns="http://www.w3.org/2000/svg"
 width="300.000000pt" height="300.000000pt" viewBox="0 0 300.000000 300.000000"
 preserveAspectRatio="xMidYMid meet">
<g transform="translate(0.000000,300.000000) scale(0.100000,-0.100000)"
fill="#5e81ac" stroke="none">
<path d="M0 1500 l0 -1500 1500 0 1500 0 0 1500 0 1500 -1500 0 -1500 0 0
-1500z m883 870 c145 -17 284 -78 404 -179 66 -54 77 -75 59 -109 -8 -15 -25
-38 -37 -53 -13 -14 -43 -50 -67 -81 -24 -31 -50 -59 -59 -62 -17 -7 -43 7
-80 43 -39 37 -147 89 -211 102 -83 16 -188 7 -244 -19 -79 -39 -102 -122 -52
-182 32 -38 72 -58 320 -165 277 -119 368 -185 434 -315 111 -221 30 -486
-194 -632 -170 -110 -444 -129 -673 -46 -133 48 -353 208 -353 256 0 21 180
226 202 230 8 2 44 -22 79 -52 115 -101 236 -149 374 -150 107 -1 169 18 217
66 36 36 38 42 38 100 0 58 -2 63 -38 97 -27 26 -99 63 -253 130 -118 52 -245
113 -283 135 -84 50 -180 151 -215 225 -23 51 -26 68 -26 176 0 113 2 124 31
185 44 94 127 179 222 228 86 45 137 61 232 72 36 4 70 8 75 9 6 0 49 -4 98
-9z m1433 -31 c183 -25 302 -86 386 -197 67 -88 88 -163 88 -311 0 -96 -5
-128 -24 -182 -39 -112 -123 -212 -223 -266 l-51 -29 189 -324 c104 -179 189
-332 189 -341 0 -35 -21 -39 -190 -39 -154 0 -168 2 -185 20 -10 11 -95 156
-190 322 l-172 303 -77 3 -76 3 0 -307 c0 -272 -2 -310 -17 -326 -14 -16 -33
-18 -163 -18 -125 0 -150 3 -161 17 -12 13 -14 155 -14 828 0 785 1 814 19
834 19 20 27 21 307 21 158 0 323 -5 365 -11z"/>
<path d="M1980 1825 l0 -207 153 4 c128 4 160 8 202 26 85 38 119 112 103 231
-14 109 -77 139 -305 148 l-153 6 0 -208z"/>
</g>
</svg>
